<svg  height="57" viewBox="0 0 88 64" fill="none" xmlns="http://www.w3.org/2000/svg">
    <path d="M66.6415 27.9346H21.0923" stroke-width="8" stroke-linecap="round" stroke-linejoin="round"/>
    <path d="M83.1767 4L68.6921 28.5964" stroke-width="8" stroke-linecap="round" stroke-linejoin="round"/>
    <path d="M5.91437 53.016C3.85466 52.2173 1.53748 53.2396 0.738816 55.2993C-0.0598488 57.359 0.962435 59.6762 3.02215 60.4749L5.91437 53.016ZM72.1985 30.5212C73.2617 28.5847 72.5537 26.153 70.6172 25.0899C68.6808 24.0267 66.2491 24.7347 65.1859 26.6712L72.1985 30.5212ZM4.46826 56.7454C3.02215 60.4749 3.02334 60.4753 3.02458 60.4758C3.02506 60.476 3.02636 60.4765 3.02732 60.4769C3.02925 60.4776 3.03139 60.4784 3.03373 60.4793C3.03842 60.4811 3.04393 60.4833 3.05027 60.4857C3.06294 60.4905 3.07889 60.4966 3.0981 60.5038C3.13651 60.5183 3.18793 60.5374 3.25209 60.5608C3.38039 60.6076 3.55969 60.6715 3.78777 60.7493C4.24384 60.9047 4.89559 61.1157 5.72522 61.3561C7.38345 61.8365 9.75862 62.4358 12.7073 62.9423C18.5962 63.9539 26.8301 64.605 36.2319 63.1585L35.0155 55.2516C26.6532 56.5381 19.3094 55.9593 14.0617 55.0578C11.4419 54.6078 9.35902 54.0798 7.95124 53.672C7.24786 53.4683 6.71463 53.2949 6.36896 53.1771C6.19618 53.1182 6.07043 53.0732 5.99389 53.0453C5.95563 53.0314 5.92969 53.0217 5.91634 53.0166C5.90967 53.0141 5.90614 53.0128 5.9058 53.0127C5.90563 53.0126 5.90626 53.0128 5.90769 53.0134C5.9084 53.0137 5.90931 53.014 5.91043 53.0144C5.91098 53.0147 5.91197 53.015 5.91225 53.0151C5.91329 53.0155 5.91437 53.016 4.46826 56.7454ZM36.2319 63.1585C41.5707 62.3372 46.4761 59.6776 50.7097 56.4507C54.9653 53.207 58.7611 49.2224 61.9018 45.4252C65.0525 41.6159 67.6135 37.9101 69.3852 35.1619C70.2731 33.7847 70.9679 32.64 71.4444 31.8329C71.6827 31.4292 71.8668 31.1094 71.9935 30.8865C72.0568 30.7751 72.1058 30.6879 72.1401 30.6264C72.1573 30.5957 72.1708 30.5715 72.1805 30.5539C72.1854 30.5451 72.1893 30.5379 72.1923 30.5325C72.1938 30.5298 72.1951 30.5275 72.1961 30.5256C72.1966 30.5246 72.1972 30.5236 72.1975 30.5231C72.198 30.5221 72.1985 30.5212 68.6922 28.5962C65.1859 26.6712 65.1863 26.6705 65.1866 26.6699C65.1866 26.6699 65.1868 26.6694 65.1869 26.6693C65.187 26.6692 65.1869 26.6694 65.1865 26.6701C65.1858 26.6714 65.1841 26.6743 65.1816 26.6789C65.1765 26.6882 65.1677 26.7039 65.1554 26.726C65.1307 26.7703 65.0916 26.8399 65.0385 26.9333C64.9323 27.1201 64.7702 27.4019 64.5554 27.7657C64.1256 28.4937 63.4859 29.5483 62.6614 30.8271C61.0084 33.3911 58.6331 36.8251 55.7372 40.3264C52.8312 43.8398 49.4702 47.3365 45.8601 50.0882C42.2279 52.8567 38.5587 54.7064 35.0155 55.2516L36.2319 63.1585Z"
          fill="#797979"/>
</svg>
