<svg width="57" height="57" viewBox="0 0 252 253" fill="none" xmlns="http://www.w3.org/2000/svg">
<path d="M239.645 126.659C239.645 189.522 188.685 240.482 125.823 240.482C62.9601 240.482 12 189.522 12 126.659C12 63.797 62.9601 12.8369 125.823 12.8369C188.685 12.8369 239.645 63.797 239.645 126.659Z" stroke="#202020" stroke-width="24"/>
<line x1="202" y1="127.837" x2="226" y2="127.837" stroke="#202020" stroke-width="16" stroke-linecap="round"/>
<line x1="126" y1="50.8369" x2="126" y2="26.8369" stroke="#202020" stroke-width="16" stroke-linecap="round"/>
<line x1="55" y1="201.201" x2="71.9706" y2="184.23" stroke="#202020" stroke-width="16" stroke-linecap="round"/>
<line x1="26" y1="127.837" x2="50" y2="127.837" stroke="#202020" stroke-width="16" stroke-linecap="round"/>
<line x1="69.9706" y1="73.1211" x2="53" y2="56.1505" stroke="#202020" stroke-width="16" stroke-linecap="round"/>
<line x1="196.971" y1="202.121" x2="180" y2="185.151" stroke="#202020" stroke-width="16" stroke-linecap="round"/>
<line x1="180" y1="71.8074" x2="196.971" y2="54.8368" stroke="#202020" stroke-width="16" stroke-linecap="round"/>
<line x1="126" y1="228.837" x2="126" y2="204.837" stroke="#202020" stroke-width="16" stroke-linecap="round"/>
</svg>
