<svg width="119" height="69" viewBox="0 0 119 69" fill="none" xmlns="http://www.w3.org/2000/svg">
    <circle r="21.3852" transform="matrix(-1 0 0 1 23.984 45.1854)" stroke="#202020" stroke-width="4.25"/>
    <circle r="21.3852" transform="matrix(-1 0 0 1 94.4916 45.1854)" stroke="#202020" stroke-width="4.25"/>
    <path d="M51.9099 25.063H83.0702" stroke="#202020" stroke-width="4.25" stroke-linecap="round"
          stroke-linejoin="round"/>
    <path d="M94.4146 43.002C95.5882 43.002 96.5396 43.9534 96.5396 45.127C96.5396 46.3006 95.5882 47.252 94.4146 47.252L94.4146 43.002ZM39.0639 10.1192C38.4574 9.11441 38.7803 7.80825 39.7851 7.20177C40.7898 6.5953 42.096 6.91818 42.7024 7.92294L39.0639 10.1192ZM62.6766 45.127L62.6766 47.252C61.9322 47.252 61.242 46.8624 60.8574 46.2251L62.6766 45.127ZM94.4146 47.252L62.6766 47.252L62.6766 43.002L94.4146 43.002L94.4146 47.252ZM60.8574 46.2251L39.0639 10.1192L42.7024 7.92294L64.4959 44.0289L60.8574 46.2251Z"
          fill="#202020"/>
    <path d="M49.8452 3.0503C49.8452 3.0503 40.2164 1.00881 36.8808 14.0383C33.5451 27.0678 33.6181 27.9802 30.711 34.9054C27.804 41.8305 24.5365 44.8738 24.5365 44.8738"
          stroke="#202020" stroke-width="4.25" stroke-linecap="round" stroke-linejoin="round"/>
    <path d="M79.831 15.0664H94.4034" stroke="#202020" stroke-width="4.25" stroke-linecap="round"
          stroke-linejoin="round"/>
    <path d="M81.0348 28.3088L87.1172 15.0664" stroke="#202020" stroke-width="4.25" stroke-linecap="round"
          stroke-linejoin="round"/>
</svg>
