<svg width="630" height="364" viewBox="0 0 630 364" fill="none" xmlns="http://www.w3.org/2000/svg">
<circle cx="503.673" cy="238.124" r="113.823" stroke="#202020" stroke-width="24"/>
<circle cx="126.327" cy="238.124" r="113.823" stroke="#202020" stroke-width="24"/>
<path d="M354.218 130.431H187.452" stroke="#202020" stroke-width="24" stroke-linecap="round" stroke-linejoin="round"/>
<path d="M126.739 225.81C120.111 225.81 114.739 231.182 114.739 237.81C114.739 244.437 120.111 249.81 126.739 249.81L126.739 225.81ZM423.505 50.7773C426.929 45.1033 425.106 37.7274 419.432 34.3026C413.758 30.8778 406.382 32.7011 402.957 38.375L423.505 50.7773ZM296.596 237.81L296.596 249.81C300.8 249.81 304.697 247.61 306.869 244.011L296.596 237.81ZM126.739 249.81L296.596 249.81L296.596 225.81L126.739 225.81L126.739 249.81ZM306.869 244.011L423.505 50.7773L402.957 38.375L286.322 231.608L306.869 244.011Z" fill="#202020"/>
<path d="M365.268 12.622C365.268 12.622 416.8 1.69626 434.652 71.4281C452.503 141.16 452.113 146.043 467.671 183.106C483.229 220.168 500.717 236.455 500.717 236.455" stroke="#202020" stroke-width="24" stroke-linecap="round" stroke-linejoin="round"/>
<path d="M204.788 76.9292H126.799" stroke="#202020" stroke-width="24" stroke-linecap="round" stroke-linejoin="round"/>
<path d="M198.346 147.8L165.794 76.9292" stroke="#202020" stroke-width="24" stroke-linecap="round" stroke-linejoin="round"/>
</svg>
